<mxfile host="app.diagrams.net" modified="2022-03-11T08:47:12.882Z" agent="5.0 (X11; Linux x86_64) AppleWebKit/537.36 (KHTML, like Gecko) Chrome/95.0.4638.54 Safari/537.36" etag="3NEkKvEEP_FkrfmA29bh" version="17.1.1" type="github">
  <diagram id="LWZ2CtlcG5xfI4F9U-2H" name="Page-1">
    <mxGraphModel dx="1350" dy="805" grid="1" gridSize="10" guides="1" tooltips="1" connect="1" arrows="1" fold="1" page="1" pageScale="1" pageWidth="827" pageHeight="1169" math="0" shadow="0">
      <root>
        <mxCell id="0" />
        <mxCell id="1" parent="0" />
        <mxCell id="P4jvxCzI2_4ov7lsApTx-15" value="" style="edgeStyle=orthogonalEdgeStyle;rounded=0;orthogonalLoop=1;jettySize=auto;html=1;" edge="1" parent="1" source="P4jvxCzI2_4ov7lsApTx-2" target="P4jvxCzI2_4ov7lsApTx-4">
          <mxGeometry relative="1" as="geometry" />
        </mxCell>
        <mxCell id="P4jvxCzI2_4ov7lsApTx-76" value="" style="edgeStyle=orthogonalEdgeStyle;rounded=0;orthogonalLoop=1;jettySize=auto;html=1;" edge="1" parent="1" source="P4jvxCzI2_4ov7lsApTx-2" target="P4jvxCzI2_4ov7lsApTx-32">
          <mxGeometry relative="1" as="geometry" />
        </mxCell>
        <mxCell id="P4jvxCzI2_4ov7lsApTx-78" value="" style="edgeStyle=orthogonalEdgeStyle;rounded=0;orthogonalLoop=1;jettySize=auto;html=1;" edge="1" parent="1" source="P4jvxCzI2_4ov7lsApTx-2" target="P4jvxCzI2_4ov7lsApTx-37">
          <mxGeometry relative="1" as="geometry" />
        </mxCell>
        <mxCell id="P4jvxCzI2_4ov7lsApTx-2" value="创建项目" style="ellipse;whiteSpace=wrap;html=1;" vertex="1" parent="1">
          <mxGeometry x="315" y="220" width="120" height="80" as="geometry" />
        </mxCell>
        <mxCell id="P4jvxCzI2_4ov7lsApTx-17" value="" style="edgeStyle=orthogonalEdgeStyle;rounded=0;orthogonalLoop=1;jettySize=auto;html=1;" edge="1" parent="1" source="P4jvxCzI2_4ov7lsApTx-3" target="P4jvxCzI2_4ov7lsApTx-5">
          <mxGeometry relative="1" as="geometry" />
        </mxCell>
        <mxCell id="P4jvxCzI2_4ov7lsApTx-80" value="" style="edgeStyle=orthogonalEdgeStyle;rounded=0;orthogonalLoop=1;jettySize=auto;html=1;" edge="1" parent="1" source="P4jvxCzI2_4ov7lsApTx-3" target="P4jvxCzI2_4ov7lsApTx-52">
          <mxGeometry relative="1" as="geometry" />
        </mxCell>
        <mxCell id="P4jvxCzI2_4ov7lsApTx-82" value="" style="edgeStyle=orthogonalEdgeStyle;rounded=0;orthogonalLoop=1;jettySize=auto;html=1;" edge="1" parent="1" source="P4jvxCzI2_4ov7lsApTx-3" target="P4jvxCzI2_4ov7lsApTx-48">
          <mxGeometry relative="1" as="geometry" />
        </mxCell>
        <mxCell id="P4jvxCzI2_4ov7lsApTx-3" value="创建组" style="ellipse;whiteSpace=wrap;html=1;" vertex="1" parent="1">
          <mxGeometry x="315" y="460" width="120" height="80" as="geometry" />
        </mxCell>
        <mxCell id="P4jvxCzI2_4ov7lsApTx-16" value="" style="edgeStyle=orthogonalEdgeStyle;rounded=0;orthogonalLoop=1;jettySize=auto;html=1;" edge="1" parent="1" source="P4jvxCzI2_4ov7lsApTx-4" target="P4jvxCzI2_4ov7lsApTx-3">
          <mxGeometry relative="1" as="geometry" />
        </mxCell>
        <mxCell id="P4jvxCzI2_4ov7lsApTx-77" value="" style="edgeStyle=orthogonalEdgeStyle;rounded=0;orthogonalLoop=1;jettySize=auto;html=1;" edge="1" parent="1" source="P4jvxCzI2_4ov7lsApTx-4" target="P4jvxCzI2_4ov7lsApTx-40">
          <mxGeometry relative="1" as="geometry" />
        </mxCell>
        <mxCell id="P4jvxCzI2_4ov7lsApTx-79" value="" style="edgeStyle=orthogonalEdgeStyle;rounded=0;orthogonalLoop=1;jettySize=auto;html=1;" edge="1" parent="1" source="P4jvxCzI2_4ov7lsApTx-4" target="P4jvxCzI2_4ov7lsApTx-44">
          <mxGeometry relative="1" as="geometry" />
        </mxCell>
        <mxCell id="P4jvxCzI2_4ov7lsApTx-4" value="创建流程" style="ellipse;whiteSpace=wrap;html=1;" vertex="1" parent="1">
          <mxGeometry x="315" y="340" width="120" height="80" as="geometry" />
        </mxCell>
        <mxCell id="P4jvxCzI2_4ov7lsApTx-81" value="" style="edgeStyle=orthogonalEdgeStyle;rounded=0;orthogonalLoop=1;jettySize=auto;html=1;" edge="1" parent="1" source="P4jvxCzI2_4ov7lsApTx-5" target="P4jvxCzI2_4ov7lsApTx-60">
          <mxGeometry relative="1" as="geometry" />
        </mxCell>
        <mxCell id="P4jvxCzI2_4ov7lsApTx-83" value="" style="edgeStyle=orthogonalEdgeStyle;rounded=0;orthogonalLoop=1;jettySize=auto;html=1;" edge="1" parent="1" source="P4jvxCzI2_4ov7lsApTx-5" target="P4jvxCzI2_4ov7lsApTx-55">
          <mxGeometry relative="1" as="geometry" />
        </mxCell>
        <mxCell id="P4jvxCzI2_4ov7lsApTx-5" value="创建工艺项" style="ellipse;whiteSpace=wrap;html=1;" vertex="1" parent="1">
          <mxGeometry x="315" y="584.5" width="120" height="80" as="geometry" />
        </mxCell>
        <mxCell id="P4jvxCzI2_4ov7lsApTx-9" value="" style="edgeStyle=orthogonalEdgeStyle;rounded=0;orthogonalLoop=1;jettySize=auto;html=1;" edge="1" parent="1" source="P4jvxCzI2_4ov7lsApTx-7" target="P4jvxCzI2_4ov7lsApTx-8">
          <mxGeometry relative="1" as="geometry" />
        </mxCell>
        <mxCell id="P4jvxCzI2_4ov7lsApTx-12" value="管理" style="edgeLabel;html=1;align=center;verticalAlign=middle;resizable=0;points=[];" vertex="1" connectable="0" parent="P4jvxCzI2_4ov7lsApTx-9">
          <mxGeometry x="-0.2444" y="-3" relative="1" as="geometry">
            <mxPoint as="offset" />
          </mxGeometry>
        </mxCell>
        <mxCell id="P4jvxCzI2_4ov7lsApTx-7" value="管理员" style="shape=umlActor;verticalLabelPosition=bottom;verticalAlign=top;html=1;outlineConnect=0;" vertex="1" parent="1">
          <mxGeometry x="150" y="60" width="30" height="60" as="geometry" />
        </mxCell>
        <mxCell id="P4jvxCzI2_4ov7lsApTx-18" value="" style="edgeStyle=orthogonalEdgeStyle;rounded=0;orthogonalLoop=1;jettySize=auto;html=1;" edge="1" parent="1" source="P4jvxCzI2_4ov7lsApTx-8" target="P4jvxCzI2_4ov7lsApTx-2">
          <mxGeometry relative="1" as="geometry" />
        </mxCell>
        <mxCell id="P4jvxCzI2_4ov7lsApTx-8" value="普通用户" style="shape=umlActor;verticalLabelPosition=bottom;verticalAlign=top;html=1;outlineConnect=0;" vertex="1" parent="1">
          <mxGeometry x="360" y="60" width="30" height="60" as="geometry" />
        </mxCell>
        <mxCell id="P4jvxCzI2_4ov7lsApTx-31" value="已完成功能" style="swimlane;fontStyle=0;childLayout=stackLayout;horizontal=1;startSize=30;horizontalStack=0;resizeParent=1;resizeParentMax=0;resizeLast=0;collapsible=1;marginBottom=0;" vertex="1" parent="1">
          <mxGeometry x="100" y="230" width="140" height="60" as="geometry" />
        </mxCell>
        <mxCell id="P4jvxCzI2_4ov7lsApTx-32" value="1. 项目名称设置" style="text;strokeColor=none;fillColor=none;align=left;verticalAlign=middle;spacingLeft=4;spacingRight=4;overflow=hidden;points=[[0,0.5],[1,0.5]];portConstraint=eastwest;rotatable=0;" vertex="1" parent="P4jvxCzI2_4ov7lsApTx-31">
          <mxGeometry y="30" width="140" height="30" as="geometry" />
        </mxCell>
        <mxCell id="P4jvxCzI2_4ov7lsApTx-35" value="未完成功能" style="swimlane;fontStyle=0;childLayout=stackLayout;horizontal=1;startSize=30;horizontalStack=0;resizeParent=1;resizeParentMax=0;resizeLast=0;collapsible=1;marginBottom=0;" vertex="1" parent="1">
          <mxGeometry x="523" y="215" width="140" height="90" as="geometry">
            <mxRectangle x="560" y="215" width="90" height="30" as="alternateBounds" />
          </mxGeometry>
        </mxCell>
        <mxCell id="P4jvxCzI2_4ov7lsApTx-36" value="1. 项目clone" style="text;strokeColor=none;fillColor=none;align=left;verticalAlign=middle;spacingLeft=4;spacingRight=4;overflow=hidden;points=[[0,0.5],[1,0.5]];portConstraint=eastwest;rotatable=0;" vertex="1" parent="P4jvxCzI2_4ov7lsApTx-35">
          <mxGeometry y="30" width="140" height="30" as="geometry" />
        </mxCell>
        <mxCell id="P4jvxCzI2_4ov7lsApTx-37" value="2. 项目导入/导出" style="text;strokeColor=none;fillColor=none;align=left;verticalAlign=middle;spacingLeft=4;spacingRight=4;overflow=hidden;points=[[0,0.5],[1,0.5]];portConstraint=eastwest;rotatable=0;" vertex="1" parent="P4jvxCzI2_4ov7lsApTx-35">
          <mxGeometry y="60" width="140" height="30" as="geometry" />
        </mxCell>
        <mxCell id="P4jvxCzI2_4ov7lsApTx-39" value="已完成功能" style="swimlane;fontStyle=0;childLayout=stackLayout;horizontal=1;startSize=30;horizontalStack=0;resizeParent=1;resizeParentMax=0;resizeLast=0;collapsible=1;marginBottom=0;" vertex="1" parent="1">
          <mxGeometry x="100" y="340" width="140" height="80" as="geometry" />
        </mxCell>
        <mxCell id="P4jvxCzI2_4ov7lsApTx-40" value="1. 编辑流程&#xa;流程名称一经创建，不&#xa;允许修改" style="text;strokeColor=none;fillColor=none;align=left;verticalAlign=middle;spacingLeft=4;spacingRight=4;overflow=hidden;points=[[0,0.5],[1,0.5]];portConstraint=eastwest;rotatable=0;" vertex="1" parent="P4jvxCzI2_4ov7lsApTx-39">
          <mxGeometry y="30" width="140" height="50" as="geometry" />
        </mxCell>
        <mxCell id="P4jvxCzI2_4ov7lsApTx-43" value="未完成功能" style="swimlane;fontStyle=0;childLayout=stackLayout;horizontal=1;startSize=30;horizontalStack=0;resizeParent=1;resizeParentMax=0;resizeLast=0;collapsible=1;marginBottom=0;" vertex="1" parent="1">
          <mxGeometry x="523" y="330" width="140" height="60" as="geometry" />
        </mxCell>
        <mxCell id="P4jvxCzI2_4ov7lsApTx-44" value="1. 流程clone" style="text;strokeColor=none;fillColor=none;align=left;verticalAlign=middle;spacingLeft=4;spacingRight=4;overflow=hidden;points=[[0,0.5],[1,0.5]];portConstraint=eastwest;rotatable=0;" vertex="1" parent="P4jvxCzI2_4ov7lsApTx-43">
          <mxGeometry y="30" width="140" height="30" as="geometry" />
        </mxCell>
        <mxCell id="P4jvxCzI2_4ov7lsApTx-46" value="已完成功能" style="swimlane;fontStyle=0;childLayout=stackLayout;horizontal=1;startSize=30;horizontalStack=0;resizeParent=1;resizeParentMax=0;resizeLast=0;collapsible=1;marginBottom=0;" vertex="1" parent="1">
          <mxGeometry x="100" y="460" width="140" height="150" as="geometry" />
        </mxCell>
        <mxCell id="P4jvxCzI2_4ov7lsApTx-47" value="1. 编辑组" style="text;strokeColor=none;fillColor=none;align=left;verticalAlign=middle;spacingLeft=4;spacingRight=4;overflow=hidden;points=[[0,0.5],[1,0.5]];portConstraint=eastwest;rotatable=0;" vertex="1" parent="P4jvxCzI2_4ov7lsApTx-46">
          <mxGeometry y="30" width="140" height="30" as="geometry" />
        </mxCell>
        <mxCell id="P4jvxCzI2_4ov7lsApTx-48" value="2. 默认支持Genes仿真" style="text;strokeColor=none;fillColor=none;align=left;verticalAlign=middle;spacingLeft=4;spacingRight=4;overflow=hidden;points=[[0,0.5],[1,0.5]];portConstraint=eastwest;rotatable=0;" vertex="1" parent="P4jvxCzI2_4ov7lsApTx-46">
          <mxGeometry y="60" width="140" height="30" as="geometry" />
        </mxCell>
        <mxCell id="P4jvxCzI2_4ov7lsApTx-58" value="3. 默认支持工艺项仿真" style="text;strokeColor=none;fillColor=none;align=left;verticalAlign=middle;spacingLeft=4;spacingRight=4;overflow=hidden;points=[[0,0.5],[1,0.5]];portConstraint=eastwest;rotatable=0;" vertex="1" parent="P4jvxCzI2_4ov7lsApTx-46">
          <mxGeometry y="90" width="140" height="30" as="geometry" />
        </mxCell>
        <mxCell id="P4jvxCzI2_4ov7lsApTx-49" value="4. 组的拖拽" style="text;strokeColor=none;fillColor=none;align=left;verticalAlign=middle;spacingLeft=4;spacingRight=4;overflow=hidden;points=[[0,0.5],[1,0.5]];portConstraint=eastwest;rotatable=0;" vertex="1" parent="P4jvxCzI2_4ov7lsApTx-46">
          <mxGeometry y="120" width="140" height="30" as="geometry" />
        </mxCell>
        <mxCell id="P4jvxCzI2_4ov7lsApTx-50" value="未完成功能" style="swimlane;fontStyle=0;childLayout=stackLayout;horizontal=1;startSize=30;horizontalStack=0;resizeParent=1;resizeParentMax=0;resizeLast=0;collapsible=1;marginBottom=0;" vertex="1" parent="1">
          <mxGeometry x="523" y="470" width="140" height="120" as="geometry" />
        </mxCell>
        <mxCell id="P4jvxCzI2_4ov7lsApTx-51" value="1. 组clone" style="text;strokeColor=none;fillColor=none;align=left;verticalAlign=middle;spacingLeft=4;spacingRight=4;overflow=hidden;points=[[0,0.5],[1,0.5]];portConstraint=eastwest;rotatable=0;" vertex="1" parent="P4jvxCzI2_4ov7lsApTx-50">
          <mxGeometry y="30" width="140" height="30" as="geometry" />
        </mxCell>
        <mxCell id="P4jvxCzI2_4ov7lsApTx-52" value="2. 仿真类型切换，cpu&#xa;核数指定（不支持）" style="text;strokeColor=none;fillColor=none;align=left;verticalAlign=middle;spacingLeft=4;spacingRight=4;overflow=hidden;points=[[0,0.5],[1,0.5]];portConstraint=eastwest;rotatable=0;" vertex="1" parent="P4jvxCzI2_4ov7lsApTx-50">
          <mxGeometry y="60" width="140" height="30" as="geometry" />
        </mxCell>
        <mxCell id="P4jvxCzI2_4ov7lsApTx-53" value="3. 组仿真不支持" style="text;strokeColor=none;fillColor=none;align=left;verticalAlign=middle;spacingLeft=4;spacingRight=4;overflow=hidden;points=[[0,0.5],[1,0.5]];portConstraint=eastwest;rotatable=0;" vertex="1" parent="P4jvxCzI2_4ov7lsApTx-50">
          <mxGeometry y="90" width="140" height="30" as="geometry" />
        </mxCell>
        <mxCell id="P4jvxCzI2_4ov7lsApTx-54" value="已完成功能" style="swimlane;fontStyle=0;childLayout=stackLayout;horizontal=1;startSize=30;horizontalStack=0;resizeParent=1;resizeParentMax=0;resizeLast=0;collapsible=1;marginBottom=0;" vertex="1" parent="1">
          <mxGeometry x="100" y="631" width="140" height="120" as="geometry" />
        </mxCell>
        <mxCell id="P4jvxCzI2_4ov7lsApTx-55" value="1. 编辑工艺项，设置工&#xa;艺参数" style="text;strokeColor=none;fillColor=none;align=left;verticalAlign=middle;spacingLeft=4;spacingRight=4;overflow=hidden;points=[[0,0.5],[1,0.5]];portConstraint=eastwest;rotatable=0;" vertex="1" parent="P4jvxCzI2_4ov7lsApTx-54">
          <mxGeometry y="30" width="140" height="30" as="geometry" />
        </mxCell>
        <mxCell id="P4jvxCzI2_4ov7lsApTx-56" value="2. 克隆工艺项" style="text;strokeColor=none;fillColor=none;align=left;verticalAlign=middle;spacingLeft=4;spacingRight=4;overflow=hidden;points=[[0,0.5],[1,0.5]];portConstraint=eastwest;rotatable=0;" vertex="1" parent="P4jvxCzI2_4ov7lsApTx-54">
          <mxGeometry y="60" width="140" height="30" as="geometry" />
        </mxCell>
        <mxCell id="P4jvxCzI2_4ov7lsApTx-57" value="3. 工艺项的拖拽" style="text;strokeColor=none;fillColor=none;align=left;verticalAlign=middle;spacingLeft=4;spacingRight=4;overflow=hidden;points=[[0,0.5],[1,0.5]];portConstraint=eastwest;rotatable=0;" vertex="1" parent="P4jvxCzI2_4ov7lsApTx-54">
          <mxGeometry y="90" width="140" height="30" as="geometry" />
        </mxCell>
        <mxCell id="P4jvxCzI2_4ov7lsApTx-59" value="未完成功能" style="swimlane;fontStyle=0;childLayout=stackLayout;horizontal=1;startSize=30;horizontalStack=0;resizeParent=1;resizeParentMax=0;resizeLast=0;collapsible=1;marginBottom=0;" vertex="1" parent="1">
          <mxGeometry x="523" y="630" width="140" height="60" as="geometry" />
        </mxCell>
        <mxCell id="P4jvxCzI2_4ov7lsApTx-60" value="1. 暂无" style="text;strokeColor=none;fillColor=none;align=left;verticalAlign=middle;spacingLeft=4;spacingRight=4;overflow=hidden;points=[[0,0.5],[1,0.5]];portConstraint=eastwest;rotatable=0;" vertex="1" parent="P4jvxCzI2_4ov7lsApTx-59">
          <mxGeometry y="30" width="140" height="30" as="geometry" />
        </mxCell>
        <mxCell id="P4jvxCzI2_4ov7lsApTx-63" value="其他未完成项" style="swimlane;fontStyle=0;childLayout=stackLayout;horizontal=1;startSize=30;horizontalStack=0;resizeParent=1;resizeParentMax=0;resizeLast=0;collapsible=1;marginBottom=0;" vertex="1" parent="1">
          <mxGeometry x="523" y="740" width="140" height="120" as="geometry">
            <mxRectangle x="560" y="215" width="90" height="30" as="alternateBounds" />
          </mxGeometry>
        </mxCell>
        <mxCell id="P4jvxCzI2_4ov7lsApTx-64" value="1. 文件上传S3" style="text;strokeColor=none;fillColor=none;align=left;verticalAlign=middle;spacingLeft=4;spacingRight=4;overflow=hidden;points=[[0,0.5],[1,0.5]];portConstraint=eastwest;rotatable=0;" vertex="1" parent="P4jvxCzI2_4ov7lsApTx-63">
          <mxGeometry y="30" width="140" height="30" as="geometry" />
        </mxCell>
        <mxCell id="P4jvxCzI2_4ov7lsApTx-66" value="2. 仿真集群任务调度" style="text;strokeColor=none;fillColor=none;align=left;verticalAlign=middle;spacingLeft=4;spacingRight=4;overflow=hidden;points=[[0,0.5],[1,0.5]];portConstraint=eastwest;rotatable=0;" vertex="1" parent="P4jvxCzI2_4ov7lsApTx-63">
          <mxGeometry y="60" width="140" height="30" as="geometry" />
        </mxCell>
        <mxCell id="P4jvxCzI2_4ov7lsApTx-65" value="3. 仿真流程“command”&#xa;命令行" style="text;strokeColor=none;fillColor=none;align=left;verticalAlign=middle;spacingLeft=4;spacingRight=4;overflow=hidden;points=[[0,0.5],[1,0.5]];portConstraint=eastwest;rotatable=0;" vertex="1" parent="P4jvxCzI2_4ov7lsApTx-63">
          <mxGeometry y="90" width="140" height="30" as="geometry" />
        </mxCell>
        <mxCell id="P4jvxCzI2_4ov7lsApTx-69" value="仿真状态" style="swimlane;" vertex="1" parent="1">
          <mxGeometry x="30" y="1290" width="730" height="200" as="geometry" />
        </mxCell>
        <mxCell id="P4jvxCzI2_4ov7lsApTx-71" value="" style="edgeStyle=orthogonalEdgeStyle;rounded=0;orthogonalLoop=1;jettySize=auto;html=1;" edge="1" parent="P4jvxCzI2_4ov7lsApTx-69" source="P4jvxCzI2_4ov7lsApTx-67" target="P4jvxCzI2_4ov7lsApTx-70">
          <mxGeometry relative="1" as="geometry" />
        </mxCell>
        <mxCell id="P4jvxCzI2_4ov7lsApTx-67" value="Incomplete" style="ellipse;whiteSpace=wrap;html=1;" vertex="1" parent="P4jvxCzI2_4ov7lsApTx-69">
          <mxGeometry x="35" y="60" width="120" height="80" as="geometry" />
        </mxCell>
        <mxCell id="P4jvxCzI2_4ov7lsApTx-73" value="" style="edgeStyle=orthogonalEdgeStyle;rounded=0;orthogonalLoop=1;jettySize=auto;html=1;" edge="1" parent="P4jvxCzI2_4ov7lsApTx-69" source="P4jvxCzI2_4ov7lsApTx-70" target="P4jvxCzI2_4ov7lsApTx-72">
          <mxGeometry relative="1" as="geometry" />
        </mxCell>
        <mxCell id="P4jvxCzI2_4ov7lsApTx-70" value="Running" style="ellipse;whiteSpace=wrap;html=1;" vertex="1" parent="P4jvxCzI2_4ov7lsApTx-69">
          <mxGeometry x="235" y="70" width="120" height="60" as="geometry" />
        </mxCell>
        <mxCell id="P4jvxCzI2_4ov7lsApTx-72" value="Error" style="ellipse;whiteSpace=wrap;html=1;" vertex="1" parent="P4jvxCzI2_4ov7lsApTx-69">
          <mxGeometry x="435" y="110" width="120" height="60" as="geometry" />
        </mxCell>
        <mxCell id="P4jvxCzI2_4ov7lsApTx-74" value="Down" style="ellipse;whiteSpace=wrap;html=1;" vertex="1" parent="P4jvxCzI2_4ov7lsApTx-69">
          <mxGeometry x="435" y="30" width="120" height="60" as="geometry" />
        </mxCell>
        <mxCell id="P4jvxCzI2_4ov7lsApTx-75" value="" style="edgeStyle=orthogonalEdgeStyle;rounded=0;orthogonalLoop=1;jettySize=auto;html=1;" edge="1" parent="P4jvxCzI2_4ov7lsApTx-69" source="P4jvxCzI2_4ov7lsApTx-70" target="P4jvxCzI2_4ov7lsApTx-74">
          <mxGeometry relative="1" as="geometry" />
        </mxCell>
      </root>
    </mxGraphModel>
  </diagram>
</mxfile>
